<svg width="25" height="21" viewBox="0 0 25 21" fill="none" xmlns="http://www.w3.org/2000/svg">
<path d="M24.375 16.75H14.9219C14.8958 17.1406 14.7656 17.4531 14.5312 17.6875C14.2969 17.8958 13.9974 18 13.6328 18H11.25C10.9115 18 10.612 17.8698 10.3516 17.6094C10.0911 17.3229 9.96094 17.0365 9.96094 16.75H0.625C0.442708 16.75 0.286458 16.8151 0.15625 16.9453C0.0520833 17.0495 0 17.1927 0 17.375V18C0 18.6771 0.247396 19.263 0.742188 19.7578C1.23698 20.2526 1.82292 20.5 2.5 20.5H22.5C23.1771 20.5 23.763 20.2526 24.2578 19.7578C24.7526 19.263 25 18.6771 25 18V17.375C25 17.1927 24.9349 17.0495 24.8047 16.9453C24.7005 16.8151 24.5573 16.75 24.375 16.75ZM22.5 2.375C22.5 1.85417 22.3177 1.41146 21.9531 1.04688C21.5885 0.682292 21.1458 0.5 20.625 0.5H4.375C3.85417 0.5 3.41146 0.682292 3.04688 1.04688C2.68229 1.41146 2.5 1.85417 2.5 2.375V15.5H22.5V2.375ZM20 13H5V3H20V13Z" fill="#108AF9"/>
</svg>
