<svg width="126" height="87" viewBox="0 0 126 87" fill="none" xmlns="http://www.w3.org/2000/svg">
<path opacity="0.1" d="M62.8571 24.1429V47.7143H39.2857V24.1429H62.8571ZM70.7143 63.4286H31.4286V71.2857H70.7143V63.4286ZM70.7143 16.2857H31.4286V55.5714H70.7143V16.2857ZM110 63.4286H78.5714V71.2857H110V63.4286ZM110 47.7143H78.5714V55.5714H110V47.7143ZM110 32H78.5714V39.8571H110V32ZM110 16.2857H78.5714V24.1429H110V16.2857ZM15.7143 75.2143C15.7143 77.3627 13.9342 79.1429 11.7857 79.1429C9.63728 79.1429 7.85714 77.3627 7.85714 75.2143V16.2857H15.7143V75.2143ZM117.857 75.2143C117.857 77.3627 116.077 79.1429 113.929 79.1429H22.8962C23.3259 77.9152 23.5714 76.5647 23.5714 75.2143V8.42857H117.857V75.2143ZM125.714 0.571424H15.7143V8.42857H0V75.2143C0 81.721 5.27902 87 11.7857 87H113.929C120.435 87 125.714 81.721 125.714 75.2143V0.571424Z" fill="white"/>
</svg>
