<svg width="984" height="641" viewBox="0 0 984 641" fill="none" xmlns="http://www.w3.org/2000/svg">
<g filter="url(#filter0_d)">
<rect x="264" y="30" width="675.001" height="406" rx="13.5" fill="white"/>
<g clip-path="url(#clip0)">
<g filter="url(#filter1_d)">
<rect x="277.507" y="36.7537" width="647.986" height="20.2611" fill="white"/>
</g>
<mask id="mask0" mask-type="alpha" maskUnits="userSpaceOnUse" x="279" y="40" width="13" height="13">
<path d="M285.714 40.7872C284.944 40.7872 284.182 40.9388 283.47 41.2334C282.759 41.5281 282.113 41.9599 281.568 42.5043C280.469 43.6037 279.851 45.0949 279.851 46.6498C279.851 48.2046 280.469 49.6958 281.568 50.7952C282.113 51.3396 282.759 51.7715 283.47 52.0661C284.182 52.3607 284.944 52.5124 285.714 52.5124C287.269 52.5124 288.76 51.8947 289.859 50.7952C290.959 49.6958 291.576 48.2046 291.576 46.6498C291.576 45.8799 291.425 45.1175 291.13 44.4062C290.836 43.695 290.404 43.0487 289.859 42.5043C289.315 41.9599 288.669 41.5281 287.957 41.2334C287.246 40.9388 286.484 40.7872 285.714 40.7872Z" fill="#979797"/>
</mask>
<g mask="url(#mask0)">
<rect x="277.507" y="38.4421" width="16.8843" height="16.8843" fill="#F96058"/>
</g>
<mask id="mask1" mask-type="alpha" maskUnits="userSpaceOnUse" x="300" y="40" width="13" height="13">
<path d="M306.82 40.7872C306.05 40.7872 305.288 40.9388 304.577 41.2334C303.865 41.5281 303.219 41.9599 302.675 42.5043C301.575 43.6037 300.957 45.0949 300.957 46.6498C300.957 48.2046 301.575 49.6958 302.675 50.7952C303.219 51.3396 303.865 51.7715 304.577 52.0661C305.288 52.3607 306.05 52.5124 306.82 52.5124C308.375 52.5124 309.866 51.8947 310.965 50.7952C312.065 49.6958 312.683 48.2046 312.683 46.6498C312.683 45.8799 312.531 45.1175 312.236 44.4062C311.942 43.695 311.51 43.0487 310.965 42.5043C310.421 41.9599 309.775 41.5281 309.064 41.2334C308.352 40.9388 307.59 40.7872 306.82 40.7872Z" fill="#979797"/>
</mask>
<g mask="url(#mask1)">
<rect x="298.612" y="38.4421" width="16.8843" height="16.8843" fill="#FABF2F"/>
</g>
<mask id="mask2" mask-type="alpha" maskUnits="userSpaceOnUse" x="322" y="40" width="12" height="13">
<path d="M327.925 40.7872C327.155 40.7872 326.393 40.9388 325.682 41.2334C324.97 41.5281 324.324 41.9599 323.78 42.5043C322.68 43.6037 322.063 45.0949 322.063 46.6498C322.063 48.2046 322.68 49.6958 323.78 50.7952C324.324 51.3396 324.97 51.7715 325.682 52.0661C326.393 52.3607 327.155 52.5124 327.925 52.5124C329.48 52.5124 330.971 51.8947 332.071 50.7952C333.17 49.6958 333.788 48.2046 333.788 46.6498C333.788 45.8799 333.636 45.1175 333.342 44.4062C333.047 43.695 332.615 43.0487 332.071 42.5043C331.526 41.9599 330.88 41.5281 330.169 41.2334C329.457 40.9388 328.695 40.7872 327.925 40.7872Z" fill="#979797"/>
</mask>
<g mask="url(#mask2)">
<rect x="319.718" y="38.4421" width="16.8843" height="16.8843" fill="#28CE3C"/>
</g>
</g>
<rect x="277.507" y="63.7685" width="647.986" height="358.724" rx="3.37685" fill="#818181" fill-opacity="0.1"/>
</g>
<circle cx="267" cy="175" r="33.6833" fill="white"/>
<circle opacity="0.3" cx="267" cy="175" r="40.7333" fill="white"/>
<circle opacity="0.3" cx="267" cy="175" r="47" fill="white"/>
<path d="M263.328 178.484C262.266 178.578 261.391 178.844 260.703 179.281C259.859 179.844 259.219 180.719 258.781 181.906C258.656 182.219 258.438 182.375 258.125 182.375C257.812 182.375 257.078 181.938 255.922 181.062L255.5 180.734C255.5 182.828 255.969 184.531 256.906 185.844C257.969 187.281 259.5 188 261.5 188C263.312 188 264.766 187.5 265.859 186.5C266.953 185.5 267.5 184.125 267.5 182.375L267.453 181.953L263.328 178.484ZM276.969 164C276.281 164 275.656 164.25 275.094 164.75C273.75 165.969 272.094 167.438 270.125 169.156C268.219 170.812 266.984 171.906 266.422 172.438C265.641 173.219 265.125 173.844 264.875 174.312C264.625 174.781 264.5 175.359 264.5 176.047C264.5 176.672 264.641 177.281 264.922 177.875L267.922 180.359C268.297 180.453 268.641 180.5 268.953 180.5C269.953 180.5 270.844 180.188 271.625 179.562C272.469 178.906 273.453 177.719 274.578 176C275.578 174.438 277 171.938 278.844 168.5C279.281 167.656 279.5 166.922 279.5 166.297C279.5 165.641 279.25 165.094 278.75 164.656C278.25 164.219 277.656 164 276.969 164Z" fill="#108AF9"/>
<circle cx="601.5" cy="436.5" r="69.875" fill="white"/>
<circle opacity="0.3" cx="601.5" cy="436.5" r="84.5" fill="white"/>
<circle opacity="0.3" cx="601.5" cy="436.5" r="97.5" fill="white"/>
<path d="M592.5 445V448.844L577.688 463.75C577.562 463.375 577.5 463.125 577.5 463V421C577.5 420.188 577.781 419.5 578.344 418.938C578.969 418.312 579.688 418 580.5 418H589.5C590.312 418 591 418.312 591.562 418.938C592.188 419.5 592.5 420.188 592.5 421V424H587.25C586.75 424 586.5 424.25 586.5 424.75V426.25C586.5 426.75 586.75 427 587.25 427H592.5V433H587.25C586.75 433 586.5 433.25 586.5 433.75V435.25C586.5 435.75 586.75 436 587.25 436H592.5V442H587.25C586.75 442 586.5 442.25 586.5 442.75V444.25C586.5 444.75 586.75 445 587.25 445H592.5ZM622.5 451C623.312 451 624 451.312 624.562 451.938C625.188 452.5 625.5 453.188 625.5 454V463C625.5 463.812 625.188 464.5 624.562 465.062C624 465.688 623.312 466 622.5 466H580.5C580.375 466 580.125 465.938 579.75 465.812L594.656 451H598.5V456.25C598.5 456.75 598.75 457 599.25 457H600.75C601.25 457 601.5 456.75 601.5 456.25V451H607.5V456.25C607.5 456.75 607.75 457 608.25 457H609.75C610.25 457 610.5 456.75 610.5 456.25V451H616.5V456.25C616.5 456.75 616.75 457 617.25 457H618.75C619.25 457 619.5 456.75 619.5 456.25V451H622.5Z" fill="#108AF9"/>
<circle cx="67" cy="352" r="43" fill="white"/>
<circle opacity="0.3" cx="67" cy="352" r="52" fill="white"/>
<g filter="url(#filter2_d)">
<rect x="65" y="262" width="299" height="299" rx="13.5" fill="white"/>
</g>
<circle opacity="0.3" cx="67" cy="352" r="60" fill="white"/>
<path d="M81 344.625C81 343.078 80.4375 341.766 79.3125 340.688C78.2344 339.562 76.9219 339 75.375 339C73.8281 339 72.4922 339.562 71.3672 340.688C70.2891 341.766 69.75 343.078 69.75 344.625C69.75 345.891 70.125 347.016 70.875 348C71.625 348.984 72.6094 349.664 73.8281 350.039C73.7812 351.164 73.5 352.031 72.9844 352.641C72.5156 353.25 71.7188 353.695 70.5938 353.977C69.8906 354.117 68.6953 354.258 67.0078 354.398C65.6953 354.539 64.7109 354.68 64.0547 354.82C62.9766 355.008 62.0625 355.266 61.3125 355.594V345.469C62.4844 345.141 63.4219 344.484 64.125 343.5C64.875 342.516 65.25 341.391 65.25 340.125C65.25 338.578 64.6875 337.266 63.5625 336.188C62.4844 335.062 61.1719 334.5 59.625 334.5C58.0781 334.5 56.7422 335.062 55.6172 336.188C54.5391 337.266 54 338.578 54 340.125C54 341.391 54.3516 342.516 55.0547 343.5C55.8047 344.484 56.7656 345.141 57.9375 345.469V359.531C56.7656 359.859 55.8047 360.516 55.0547 361.5C54.3516 362.484 54 363.609 54 364.875C54 366.422 54.5391 367.734 55.6172 368.812C56.7422 369.938 58.0781 370.5 59.625 370.5C61.1719 370.5 62.4844 369.938 63.5625 368.812C64.6875 367.734 65.25 366.422 65.25 364.875C65.25 363.703 64.9219 362.648 64.2656 361.711C63.6094 360.727 62.7422 360.023 61.6641 359.602C61.8984 359.227 62.25 358.922 62.7188 358.688C63.1875 358.453 63.8672 358.242 64.7578 358.055C65.2734 358.008 66.1172 357.914 67.2891 357.773H67.3594C69.375 357.586 70.875 357.352 71.8594 357.07C73.5 356.602 74.7656 355.828 75.6562 354.75C76.6406 353.531 77.1562 351.938 77.2031 349.969C78.3281 349.594 79.2422 348.914 79.9453 347.93C80.6484 346.945 81 345.844 81 344.625ZM59.625 339C59.9531 339 60.2109 339.117 60.3984 339.352C60.6328 339.539 60.75 339.797 60.75 340.125C60.75 340.453 60.6328 340.734 60.3984 340.969C60.2109 341.156 59.9531 341.25 59.625 341.25C59.2969 341.25 59.0156 341.156 58.7812 340.969C58.5938 340.734 58.5 340.453 58.5 340.125C58.5 339.797 58.5938 339.539 58.7812 339.352C59.0156 339.117 59.2969 339 59.625 339ZM59.625 366C59.2969 366 59.0156 365.906 58.7812 365.719C58.5938 365.484 58.5 365.203 58.5 364.875C58.5 364.547 58.5938 364.289 58.7812 364.102C59.0156 363.867 59.2969 363.75 59.625 363.75C59.9531 363.75 60.2109 363.867 60.3984 364.102C60.6328 364.289 60.75 364.547 60.75 364.875C60.75 365.203 60.6328 365.484 60.3984 365.719C60.2109 365.906 59.9531 366 59.625 366ZM75.375 343.5C75.7031 343.5 75.9609 343.617 76.1484 343.852C76.3828 344.039 76.5 344.297 76.5 344.625C76.5 344.953 76.3828 345.234 76.1484 345.469C75.9609 345.656 75.7031 345.75 75.375 345.75C75.0469 345.75 74.7656 345.656 74.5312 345.469C74.3438 345.234 74.25 344.953 74.25 344.625C74.25 344.297 74.3438 344.039 74.5312 343.852C74.7656 343.617 75.0469 343.5 75.375 343.5Z" fill="#108AF9"/>
<defs>
<filter id="filter0_d" x="219" y="0" width="765.001" height="496" filterUnits="userSpaceOnUse" color-interpolation-filters="sRGB">
<feFlood flood-opacity="0" result="BackgroundImageFix"/>
<feColorMatrix in="SourceAlpha" type="matrix" values="0 0 0 0 0 0 0 0 0 0 0 0 0 0 0 0 0 0 127 0"/>
<feOffset dy="15"/>
<feGaussianBlur stdDeviation="22.5"/>
<feColorMatrix type="matrix" values="0 0 0 0 0.0313726 0 0 0 0 0.0313726 0 0 0 0 0.0313726 0 0 0 0.1 0"/>
<feBlend mode="normal" in2="BackgroundImageFix" result="effect1_dropShadow"/>
<feBlend mode="normal" in="SourceGraphic" in2="effect1_dropShadow" result="shape"/>
</filter>
<filter id="filter1_d" x="269.507" y="32.7537" width="663.986" height="36.2611" filterUnits="userSpaceOnUse" color-interpolation-filters="sRGB">
<feFlood flood-opacity="0" result="BackgroundImageFix"/>
<feColorMatrix in="SourceAlpha" type="matrix" values="0 0 0 0 0 0 0 0 0 0 0 0 0 0 0 0 0 0 127 0"/>
<feOffset dy="4"/>
<feGaussianBlur stdDeviation="4"/>
<feColorMatrix type="matrix" values="0 0 0 0 0.690196 0 0 0 0 0.745098 0 0 0 0 0.772549 0 0 0 0.24 0"/>
<feBlend mode="multiply" in2="BackgroundImageFix" result="effect1_dropShadow"/>
<feBlend mode="normal" in="SourceGraphic" in2="effect1_dropShadow" result="shape"/>
</filter>
<filter id="filter2_d" x="0" y="212" width="429" height="429" filterUnits="userSpaceOnUse" color-interpolation-filters="sRGB">
<feFlood flood-opacity="0" result="BackgroundImageFix"/>
<feColorMatrix in="SourceAlpha" type="matrix" values="0 0 0 0 0 0 0 0 0 0 0 0 0 0 0 0 0 0 127 0"/>
<feOffset dy="15"/>
<feGaussianBlur stdDeviation="32.5"/>
<feColorMatrix type="matrix" values="0 0 0 0 0 0 0 0 0 0 0 0 0 0 0 0 0 0 0.15 0"/>
<feBlend mode="normal" in2="BackgroundImageFix" result="effect1_dropShadow"/>
<feBlend mode="normal" in="SourceGraphic" in2="effect1_dropShadow" result="shape"/>
</filter>
<clipPath id="clip0">
<rect width="647.986" height="20.2611" fill="white" transform="translate(277.507 36.7537)"/>
</clipPath>
</defs>
</svg>
