<svg width="110" height="87" viewBox="0 0 110 87" fill="none" xmlns="http://www.w3.org/2000/svg">
<path opacity="0.1" d="M23.5714 65.3929C23.5714 64.3493 22.6507 63.4286 21.6071 63.4286H17.6786C16.635 63.4286 15.7143 64.3493 15.7143 65.3929V69.3214C15.7143 70.365 16.635 71.2857 17.6786 71.2857H21.6071C22.6507 71.2857 23.5714 70.365 23.5714 69.3214V65.3929ZM23.5714 49.6786C23.5714 48.635 22.6507 47.7143 21.6071 47.7143H17.6786C16.635 47.7143 15.7143 48.635 15.7143 49.6786V53.6071C15.7143 54.6507 16.635 55.5714 17.6786 55.5714H21.6071C22.6507 55.5714 23.5714 54.6507 23.5714 53.6071V49.6786ZM23.5714 33.9643C23.5714 32.9208 22.6507 32 21.6071 32H17.6786C16.635 32 15.7143 32.9208 15.7143 33.9643V37.8929C15.7143 38.9364 16.635 39.8571 17.6786 39.8571H21.6071C22.6507 39.8571 23.5714 38.9364 23.5714 37.8929V33.9643ZM94.2857 65.3929C94.2857 64.3493 93.365 63.4286 92.3214 63.4286H33.3929C32.3493 63.4286 31.4286 64.3493 31.4286 65.3929V69.3214C31.4286 70.365 32.3493 71.2857 33.3929 71.2857H92.3214C93.365 71.2857 94.2857 70.365 94.2857 69.3214V65.3929ZM94.2857 49.6786C94.2857 48.635 93.365 47.7143 92.3214 47.7143H33.3929C32.3493 47.7143 31.4286 48.635 31.4286 49.6786V53.6071C31.4286 54.6507 32.3493 55.5714 33.3929 55.5714H92.3214C93.365 55.5714 94.2857 54.6507 94.2857 53.6071V49.6786ZM94.2857 33.9643C94.2857 32.9208 93.365 32 92.3214 32H33.3929C32.3493 32 31.4286 32.9208 31.4286 33.9643V37.8929C31.4286 38.9364 32.3493 39.8571 33.3929 39.8571H92.3214C93.365 39.8571 94.2857 38.9364 94.2857 37.8929V33.9643ZM102.143 77.1786C102.143 78.2221 101.222 79.1429 100.179 79.1429H9.82143C8.7779 79.1429 7.85714 78.2221 7.85714 77.1786V26.1071C7.85714 25.0636 8.7779 24.1429 9.82143 24.1429H100.179C101.222 24.1429 102.143 25.0636 102.143 26.1071V77.1786ZM110 10.3929C110 4.99107 105.58 0.571424 100.179 0.571424H9.82143C4.41964 0.571424 0 4.99107 0 10.3929V77.1786C0 82.5804 4.41964 87 9.82143 87H100.179C105.58 87 110 82.5804 110 77.1786V10.3929Z" fill="white"/>
</svg>
