<svg width="142" height="111" viewBox="0 0 142 111" fill="none" xmlns="http://www.w3.org/2000/svg">
<path opacity="0.1" d="M141.429 47.8571V24.2857H117.857V32.1429H94.2857V24.2857H102.143V0.714278H78.5714V8.57142H23.5714V0.714278H0V24.2857H7.85714V63.5714H0V87.1429H23.5714V79.2857H47.1429V87.1429H39.2857V110.714H62.8571V102.857H117.857V110.714H141.429V87.1429H133.571V47.8571H141.429ZM125.714 32.1429H133.571V40H125.714V32.1429ZM86.4286 8.57142H94.2857V16.4286H86.4286V8.57142ZM7.85714 8.57142H15.7143V16.4286H7.85714V8.57142ZM15.7143 79.2857H7.85714V71.4286H15.7143V79.2857ZM94.2857 71.4286V79.2857H86.4286V71.4286H94.2857ZM23.5714 71.4286V63.5714H15.7143V24.2857H23.5714V16.4286H78.5714V24.2857H86.4286V63.5714H78.5714V71.4286H23.5714ZM55 102.857H47.1429V95H55V102.857ZM133.571 102.857H125.714V95H133.571V102.857ZM125.714 87.1429H117.857V95H62.8571V87.1429H55V79.2857H78.5714V87.1429H102.143V63.5714H94.2857V40H117.857V47.8571H125.714V87.1429Z" fill="#108AF9"/>
</svg>
